<svg xmlns="http://www.w3.org/2000/svg" viewBox="-22 0 512 512.001">
  <g fill="gray">
    <path d="M316.953 130.79a10.126 10.126 0 0 0-9.652-7.017h-48.024l-14.84-45.668a10.117 10.117 0 0 0-9.648-7.015c-4.414 0-8.293 2.82-9.652 7.015l-14.84 45.668h-48.024c-4.41 0-8.289 2.82-9.652 7.016a10.123 10.123 0 0 0 3.688 11.348l38.851 28.226-14.84 45.672a10.121 10.121 0 0 0 3.688 11.348 10.124 10.124 0 0 0 11.93 0l38.847-28.23 38.852 28.23a10.155 10.155 0 0 0 5.965 1.941c2.09 0 4.183-.648 5.964-1.941a10.127 10.127 0 0 0 3.692-11.352l-14.84-45.668 38.852-28.226a10.127 10.127 0 0 0 3.683-11.348Zm-54.21 29.51a10.133 10.133 0 0 0-3.684 11.345l11.316 34.828-29.625-21.524a10.118 10.118 0 0 0-11.93 0l-29.625 21.524 11.317-34.828a10.137 10.137 0 0 0-3.688-11.348l-29.625-21.52h36.617c4.41 0 8.29-2.82 9.653-7.015l11.316-34.825 11.317 34.825a10.122 10.122 0 0 0 9.652 7.011h36.617Zm0 0"/>
    <path d="M464.129 73.64c-4.918-6.316-12.328-9.94-20.332-9.94h-74.363l-.004-12.223h3.265c8.985 0 16.297-7.313 16.297-16.297V16.297C388.992 7.312 381.68 0 372.695 0H96.88c-8.99 0-16.298 7.313-16.298 16.297v18.887c0 8.984 7.309 16.293 16.297 16.293h3.262v12.222H25.777c-8.007 0-15.418 3.625-20.336 9.942C.527 79.96-1.164 88.03.801 95.793l13.742 54.227c9.094 35.886 29.113 67.16 57.89 90.437 27.93 22.59 61.489 35.54 97.22 37.563a272.495 272.495 0 0 0 33.94 28.628c-2.19 21.48-10.077 58.422-37.202 93.47h-34.309c-8.39 0-15.215 6.823-15.215 15.214v81.453c0 8.39 6.824 15.215 15.215 15.215h205.406c8.39 0 15.215-6.824 15.215-15.215v-81.457c0-8.387-6.824-15.21-15.215-15.21H303.18c-27.125-35.052-35.012-71.993-37.203-93.47a272.495 272.495 0 0 0 33.941-28.628c35.73-2.024 69.289-14.973 97.219-37.567 28.777-23.273 48.797-54.547 57.89-90.433l13.743-54.227c1.964-7.762.277-15.832-4.641-22.152Zm-94.692 40.337v-4.528h48.672l-7.43 29.332c-9.222 36.383-34.41 66.399-67.753 82.047 17.601-32.683 26.512-68.504 26.512-106.851ZM126.645 220.828c-33.34-15.648-58.532-45.66-67.75-82.047L51.46 109.45h48.672v4.528c0 38.347 8.91 74.168 26.512 106.851Zm-44.778 7.965C55.63 207.57 37.38 179.055 29.086 146.336L15.344 92.109a10.69 10.69 0 0 1 1.937-9.257 10.701 10.701 0 0 1 8.496-4.153h74.36v15.75H41.824c-2.312 0-4.5 1.07-5.922 2.895a7.52 7.52 0 0 0-1.351 6.449l9.8 38.672c12.028 47.445 48.29 85.21 94.981 99.207a250.68 250.68 0 0 0 2.57 3.691 246.339 246.339 0 0 0 12.332 15.907c-26.464-4.297-51.187-15.348-72.367-32.477Zm255.621 186.324c.117 0 .215.094.215.211v81.457a.217.217 0 0 1-.215.215H132.082a.213.213 0 0 1-.21-.215v-81.457a.21.21 0 0 1 .21-.21Zm-52.86-15h-99.687c21.489-31.398 29.66-63.148 32.704-84.797a42.908 42.908 0 0 0 17.14 3.598c5.84 0 11.672-1.219 17.14-3.598 3.044 21.649 11.22 53.399 32.704 84.797Zm6.731-134.762c-.09.09-.183.18-.273.278-14.73 14.953-29.399 26.05-40.813 33.61a28.013 28.013 0 0 1-30.972 0 256.602 256.602 0 0 1-40.817-33.61c-.086-.098-.18-.184-.273-.278-8.195-8.347-16.41-17.882-24.082-28.68-25.875-36.41-38.996-77.69-38.996-122.698l.008-62.5h19.605a7.5 7.5 0 0 0 7.5-7.5 7.5 7.5 0 0 0-7.5-7.5H96.88a1.299 1.299 0 0 1-1.297-1.297V16.297c0-.715.582-1.297 1.297-1.297h275.816c.715 0 1.297.582 1.297 1.297v18.887c0 .71-.582 1.293-1.297 1.293h-203.04a7.5 7.5 0 1 0 0 15H354.43l.011 62.5c0 45.011-13.12 86.293-38.996 122.699-7.675 10.797-15.886 20.332-24.086 28.68ZM454.23 92.11l-13.742 54.227c-8.293 32.719-26.547 61.234-52.785 82.457-21.176 17.129-45.902 28.18-72.363 32.477a245.236 245.236 0 0 0 14.898-19.594c46.696-14 82.957-51.766 94.98-99.211l9.802-38.672a7.507 7.507 0 0 0-1.352-6.45 7.507 7.507 0 0 0-5.918-2.894h-58.313l-.003-15.75h74.363c3.344 0 6.437 1.516 8.496 4.153a10.716 10.716 0 0 1 1.937 9.257Zm0 0"/>
    <path d="M151.266 443.922v24.273c0 5.188 4.222 9.407 9.41 9.407h148.222c5.188 0 9.407-4.22 9.407-9.407v-24.273c0-5.188-4.22-9.406-9.407-9.406h-15.867a7.497 7.497 0 0 0-7.5 7.5 7.5 7.5 0 0 0 7.5 7.5h10.274v13.086h-137.04v-13.086h91.856a7.5 7.5 0 0 0 7.5-7.5c0-4.145-3.355-7.5-7.5-7.5h-97.445c-5.188 0-9.41 4.218-9.41 9.406Zm0 0"/>
  </g>
</svg>
