<svg xmlns="http://www.w3.org/2000/svg" viewBox="0 0 500 500"><path fill="#92e3a9" d="M436.94 419.9H65S53.19 400 45 360s30.84-25.4 40.82-59.88-33.56-27.21-29.93-74.39 63.5-48.08 92.53-41.73 25.4-15.42 59-51.71 84.37-32.66 109.77-4.53 17.23 57.15 49 57.15S427 191.29 446 252.07s-15.77 88.56-15.14 116a300.58 300.58 0 0 0 6.08 51.83Z"/><path fill="#fff" d="M436.94 419.9H65S53.19 400 45 360s30.84-25.4 40.82-59.88-33.56-27.21-29.93-74.39 63.5-48.08 92.53-41.73 25.4-15.42 59-51.71 84.37-32.66 109.77-4.53 17.23 57.15 49 57.15S427 191.29 446 252.07s-15.77 88.56-15.14 116a300.58 300.58 0 0 0 6.08 51.83Z" opacity=".7"/><g stroke="#2e353a" stroke-linecap="round" stroke-linejoin="round"><path fill="#2e353a" d="M215.41 419.9c-9.11-13.87-48-72.19-59.38-73.75-11.09-1.52-50.5 57.45-61.16 73.75Z"/><path fill="none" stroke-width="3" d="M265.28 79.13v134.49M281.26 82.74v130.88M298.78 154.36v126.77M317.33 82.74v198.39M335.88 82.74v134.49M251.37 97.16h85.03M251.37 127.05h92.21M249.83 154.36h102.54M248.28 184.77h104.09M267.86 217.74h78.84M288.47 249.69H340"/><path fill="none" stroke-width="2" d="M152.81 91.9 171 106.14M189.19 76.88l6.33 9.49M221.62 53.94l5.54 17.4"/><path fill="#92e3a9" stroke-width="2" d="M325.4 277.54h-30v-71.33h-40.7V79.88a100 100 0 0 0-87.42 146.73c3.26 7.59 10.92 26.18 18.59 50.22 7.09 22.19 10.79 44.5 10.79 47.87v1a7.48 7.48 0 0 0 7.47 7.74h103.25a7.49 7.49 0 0 0 7.47-7.74v-1c-.02-3.33 3.61-25.21 10.55-47.16Z"/><path fill="none" stroke-width="2" d="M220.81 96a80.31 80.31 0 0 1 8.89-3.39M187.51 121.34s8.15-13 26.06-21.75M189.65 265.26c3.71 12.12 8.62 28.91 10.32 38.29 2.88 15.82 1 24 7.2 25.41M185.11 250.8s1 3.25 2.61 8.23M249.42 332.47v-95.6s4-25-9-25-12 13 3 27 38 1 41-10-5-16-10-7 0 111 0 111"/><path fill="#fff" stroke-width="2" d="M202.08 332.86h107.91v25.04H202.08zM202.08 363.86h107.91v25.04H202.08z"/><path fill="#2e353a" d="M202.08 357.9h107.91v5.96H202.08z"/><path fill="#fff" stroke-width="2" d="M202.08 394.86h107.91v25.04H202.08z"/><path fill="none" d="M298.7 354.55h8.02M206.32 354.55h88.52M277.9 386.04h25.85M222.34 386.04h52.59M213.73 386.04h4.45"/><path fill="#2e353a" d="M202.08 388.9h107.91v5.96H202.08z"/><path fill="#92e3a9" d="M216.13 400.35h36.94v19.23h-36.94zM264.2 400.35h36.94v19.23H264.2z"/></g><g stroke="#2e353a" stroke-linecap="round" stroke-linejoin="round"><path fill="#2e353a" d="M334.37 419.9c-7.08-6.21-37.31-32.32-46.11-33-8.62-.69-39.22 25.72-47.5 33Z"/><path fill="#fff" d="M451.08 419.9h8.68M53.74 419.9H442.4M40.24 419.9h6.75"/></g><g stroke-linecap="round" stroke-linejoin="round"><path fill="#2e353a" stroke="#2e353a" d="M433.61 362.83h-25.95v36.4h36.71v-18.2l-10.76-18.2z"/><path fill="#fff" stroke="#2e353a" d="M432.48 399.23h11.89v8.27h-11.89z"/><path fill="#92e3a9" stroke="#2e353a" d="M388.37 398.82s13-7 8.5-42l-16.5-9-28.5-4.5-25.5 1v14.5s14.5 12.5 16 16.5a27.72 27.72 0 0 1 1.5 8.5v14Z"/><path fill="none" stroke="#2e353a" d="m396.87 356.82-8.5 42M380.37 347.82l-9.5 51M351.87 343.32l-7 38M327.37 356.82s16.5 7 23 11.5 5.5 14 5.5 14"/><path fill="#fff" stroke="#2e353a" d="M330.36 399.49h77.53v6.5h-77.53zM423.37 382.82h16.19l-8.69-15h-7.5v15zM413.87 367.82h7v15h-7z"/><path fill="#fff" stroke="#2e353a" d="M330.77 399.23h47.2v11.27h-47.2z"/><circle cx="420.9" cy="409.98" r="9.93" fill="#2e353a" stroke="#2e353a" transform="rotate(-10.24 420.717 409.859)"/><circle cx="420.9" cy="409.98" r="5.79" fill="#fff" stroke="#2e353a"/><circle cx="344.4" cy="409.98" r="9.93" fill="#2e353a" stroke="#2e353a" transform="rotate(-10.04 344.299 409.856)"/><circle cx="344.4" cy="409.98" r="5.79" fill="#fff" stroke="#2e353a"/><circle cx="368.37" cy="409.98" r="9.93" fill="#2e353a" stroke="#2e353a" transform="rotate(-42.56 368.318 409.952)"/><circle cx="368.37" cy="409.98" r="5.79" fill="#fff" stroke="#2e353a"/><rect width="31.5" height="17" x="336.87" y="381.82" fill="#2e353a" stroke="#2e353a" rx="3.25"/><path fill="none" stroke="#2e353a" d="M324.37 398.82v-49.45h10v49.45M324.44 355.92h9.82M324.44 363.64h9.82M324.44 371.36h9.82M324.44 379.09h9.82M324.44 386.81h9.82M324.44 394.53h9.82M124.36 420.87h-18v-314l18 20.93v293.07z"/><path fill="none" stroke="#2e353a" d="M106.54 354.87h17.65l-17.65-17.07h17.65l-17.65 17.07zM106.54 337.37h17.65l-17.65-17.07h17.65l-17.65 17.07zM106.54 319.87h17.65l-17.65-17.07h17.65l-17.65 17.07zM106.54 302.37h17.65l-17.65-17.07h17.65l-17.65 17.07zM106.54 284.87h17.65l-17.65-17.07h17.65l-17.65 17.07zM106.54 267.37h17.65l-17.65-17.07h17.65l-17.65 17.07zM106.54 249.87h17.65l-17.65-17.07h17.65l-17.65 17.07zM106.54 232.37h17.65l-17.65-17.07h17.65l-17.65 17.07zM106.54 214.87h17.65l-17.65-17.07h17.65l-17.65 17.07zM106.54 197.37h17.65l-17.65-17.07h17.65l-17.65 17.07zM106.54 179.87h17.65l-17.65-17.07h17.65l-17.65 17.07zM106.54 162.37h17.65l-17.65-17.07h17.65l-17.65 17.07zM106.54 144.87h17.65l-17.65-17.07h17.65l-17.65 17.07zM207.93 145.34l-8.72-5.49h-62.23l-7.6 5.49h78.55z"/><path fill="#2e353a" stroke="#2e353a" d="M57.37 144.87h152v4h-152z"/><path fill="none" stroke="#2e353a" d="m199.21 139.85-92.85-32.98 30.62 32.98M106.37 106.87l-49 38"/><path fill="#2e353a" stroke="#2e353a" d="M99.87 153.37h37.5v24h-37.5z"/><path fill="#fff" stroke="#2e353a" d="M107.68 158.37h21.87v7h-21.87zM209.37 148.87v43.12"/><path fill="#2e353a" stroke="#2e353a" d="M203.96 206.72h11.11v12.59h-11.11z"/><path fill="none" stroke="#2e353a" d="m203.96 206.72 5.56-15.55 5.56 15.55"/><path fill="#92e3a9" stroke="#2e353a" d="m179.4 358.65 24 37.94 6-4.39-17.66-35.32a9.55 9.55 0 0 0-8.55-5.28h0a4.59 4.59 0 0 0-3.79 7.05Z"/><path fill="#2e353a" stroke="#fff" d="m207.29 387.26-24.69 17.56s2.2 9.32 16.46 8.77 13.72-15.36 13.72-15.36Z"/><path fill="#92e3a9" stroke="#2e353a" d="m138.71 375.74 44.72-20.15a7.08 7.08 0 0 1 8.6 2.25h0a7.07 7.07 0 0 1-1.64 10l-48.93 34.25Z"/><path fill="#fff" stroke="#2e353a" d="M86.04 400.43h46.09v7.13H86.04z"/><path fill="#2e353a" stroke="#2e353a" d="M69.58 380.13h40.05v16.46H69.58z"/><path fill="#92e3a9" stroke="#2e353a" d="M104.42 361.47h34a3 3 0 0 1 3 3v32.1h0-40.01 0v-32.1a3 3 0 0 1 3.01-3Z"/><path fill="#2e353a" stroke="#2e353a" d="M69.17 419.9h65.57a7.81 7.81 0 0 0 7.81-7.81h0a7.82 7.82 0 0 0-7.81-7.82H69.17a7.82 7.82 0 0 0-7.81 7.82h0a7.81 7.81 0 0 0 7.81 7.81Z"/><path fill="#fff" stroke="#2e353a" d="M79.05 419.9h65.56a7.82 7.82 0 0 0 7.82-7.81h0a7.82 7.82 0 0 0-7.82-7.82H79.05a7.82 7.82 0 0 0-7.82 7.82h0a7.82 7.82 0 0 0 7.82 7.81ZM69.58 396.59h71.87v5.49H69.58z"/><path fill="#2e353a" stroke="#2e353a" d="M84.4 412.09a4.94 4.94 0 1 1-4.94-4.94 4.94 4.94 0 0 1 4.94 4.94Z"/><circle cx="92.63" cy="412.09" r="4.94" fill="#2e353a" stroke="#2e353a"/><circle cx="105.79" cy="412.09" r="4.94" fill="#2e353a" stroke="#2e353a"/><path fill="#2e353a" stroke="#2e353a" d="M123.9 412.09a4.94 4.94 0 1 1-4.94-4.94 4.94 4.94 0 0 1 4.94 4.94ZM137.07 412.09a4.94 4.94 0 1 1-4.94-4.94 4.94 4.94 0 0 1 4.94 4.94ZM150.23 412.09a4.94 4.94 0 1 1-4.93-4.94 4.93 4.93 0 0 1 4.93 4.94ZM188.64 361.47a2.75 2.75 0 1 0-2.74 2.75 2.74 2.74 0 0 0 2.74-2.75Z"/><path fill="#fff" stroke="#2e353a" d="M106.34 365.86h29.08v17.56h-29.08z"/><path fill="#fff" stroke="#2e353a" d="M119.51 365.86h15.91v17.56h-15.91z"/></g></svg>