<?xml version="1.0" standalone="no"?>
<!DOCTYPE svg PUBLIC "-//W3C//DTD SVG 20010904//EN"
 "http://www.w3.org/TR/2001/REC-SVG-20010904/DTD/svg10.dtd">
<svg version="1.0" xmlns="http://www.w3.org/2000/svg"
 width="810.000000pt" height="810.000000pt" viewBox="0 0 810.000000 810.000000"
 preserveAspectRatio="xMidYMid meet">

<g transform="translate(0.000000,810.000000) scale(0.100000,-0.100000)"
fill="#000000" stroke="none">
<path d="M5045 7078 c-2 -7 -6 -24 -8 -38 -7 -32 -56 -192 -60 -196 -2 -2 -24
15 -48 39 -37 35 -58 46 -119 61 -72 18 -78 18 -135 2 -71 -21 -114 -51 -153
-109 -112 -164 -69 -352 101 -439 49 -25 187 -32 209 -10 20 20 28 14 26 -19
-3 -30 0 -32 57 -50 33 -11 65 -17 71 -15 7 3 17 24 23 48 17 74 41 159 76
278 33 112 42 147 60 215 10 39 21 79 25 90 26 67 37 117 26 120 -6 1 -35 10
-65 19 -64 19 -80 20 -86 4z m-184 -291 c44 -29 59 -60 59 -121 0 -103 -61
-170 -152 -169 -139 2 -195 156 -96 268 38 44 42 45 97 45 44 0 66 -6 92 -23z"/>
<path d="M3806 7028 c-3 -7 -7 -133 -10 -280 l-6 -268 80 0 80 0 0 154 c0 160
9 205 47 237 26 22 70 39 101 39 37 0 90 -34 102 -66 6 -14 10 -104 10 -200
l0 -175 78 3 77 3 3 199 c2 192 2 200 -22 251 -17 39 -36 62 -68 82 -39 25
-51 28 -133 28 -87 0 -153 -17 -170 -45 -11 -18 -24 -10 -27 18 -3 26 -5 27
-71 30 -48 2 -68 -1 -71 -10z"/>
<path d="M3347 6960 c-95 -17 -204 -108 -229 -192 -58 -195 83 -388 283 -388
39 0 125 23 178 47 45 20 111 81 111 103 0 15 -68 70 -86 70 -3 0 -22 -13 -40
-30 -50 -43 -129 -64 -188 -49 -43 11 -105 63 -92 77 3 2 22 8 43 12 43 9 189
45 243 60 19 6 53 14 75 18 37 7 40 11 43 44 3 37 -30 111 -70 154 -54 60
-170 92 -271 74z m139 -141 c48 -29 50 -56 7 -74 -20 -8 -44 -15 -54 -15 -11
0 -52 -9 -91 -20 -40 -11 -76 -20 -80 -20 -5 0 -8 17 -8 38 0 29 7 46 31 70
18 18 43 35 58 38 14 3 31 7 36 9 18 6 70 -7 101 -26z"/>
<path d="M2650 6832 c-30 -15 -57 -28 -59 -29 -2 -1 8 -27 23 -56 33 -68 33
-76 -4 -88 -36 -13 -38 -34 -10 -89 23 -44 28 -47 56 -25 10 8 25 15 32 15 7
0 40 -55 72 -122 70 -143 73 -147 124 -182 52 -35 108 -35 189 3 34 15 73 40
87 55 l24 27 -42 41 -41 42 -23 -21 c-13 -11 -34 -23 -47 -26 -48 -12 -67 7
-125 127 -31 63 -56 120 -56 126 0 6 25 22 55 35 62 29 65 38 34 101 l-20 43
-60 -31 c-33 -17 -63 -28 -67 -24 -4 4 -18 28 -32 54 -14 26 -32 48 -40 49 -8
1 -40 -10 -70 -25z"/>
<path d="M2335 6490 c-3 -5 -15 -10 -25 -10 -30 0 -124 -99 -145 -152 -18 -49
-31 -59 -41 -33 -4 11 -13 13 -28 9 -32 -10 -96 -64 -96 -81 0 -8 20 -41 45
-72 52 -67 118 -150 200 -256 68 -88 83 -105 94 -105 14 0 111 83 111 94 0 6
-34 54 -76 106 -108 136 -124 163 -124 211 0 55 26 95 76 120 73 35 112 13
209 -116 29 -38 62 -79 73 -91 10 -11 25 -30 31 -42 6 -12 19 -22 29 -22 21 0
112 77 112 94 0 7 -15 30 -33 52 -18 21 -69 86 -114 144 -97 126 -147 160
-236 160 -31 0 -59 -4 -62 -10z"/>
<path d="M5466 6403 c-60 -65 -59 -130 4 -187 33 -30 48 -36 85 -36 55 0 105
40 125 99 12 36 11 45 -5 82 -26 56 -48 69 -122 69 -55 0 -65 -3 -87 -27z"/>
<path d="M6318 6202 c-18 -15 -51 -41 -73 -57 -22 -16 -44 -33 -50 -37 -5 -5
-44 -34 -85 -64 -41 -31 -84 -63 -95 -72 -11 -9 -63 -48 -115 -87 -138 -102
-132 -94 -106 -131 11 -18 60 -83 107 -145 93 -122 166 -197 214 -221 79 -40
91 -43 179 -43 78 0 99 4 146 27 143 69 230 211 217 353 -6 59 -10 75 -45 155
-15 34 -233 333 -252 345 -5 3 -24 -7 -42 -23z m87 -254 c109 -140 128 -222
75 -314 -37 -65 -90 -107 -160 -128 -50 -15 -58 -15 -105 0 -27 9 -65 27 -82
41 -29 21 -139 159 -145 182 -3 8 136 122 227 186 23 17 62 45 85 63 24 17 46
32 50 32 4 0 29 -28 55 -62z"/>
<path d="M1802 5969 c-64 -25 -140 -97 -173 -166 -17 -34 -25 -70 -27 -126 -5
-88 5 -122 54 -182 72 -92 182 -136 281 -114 144 33 263 178 263 323 0 206
-202 340 -398 265z m132 -134 c53 -22 114 -87 122 -129 19 -106 -66 -189 -178
-172 -35 5 -54 16 -88 51 -38 39 -44 51 -48 97 -5 64 22 110 83 145 47 27 61
28 109 8z"/>
<path d="M1412 5461 c-14 -46 -16 -118 -2 -126 5 -3 7 -12 4 -20 -4 -10 -12
-12 -31 -4 -13 5 -26 9 -29 9 -2 0 -18 -27 -34 -61 -25 -48 -29 -64 -19 -75 6
-8 15 -14 20 -14 4 0 59 -24 121 -54 62 -29 161 -77 220 -105 60 -28 116 -51
125 -51 12 0 27 20 46 58 15 32 27 63 27 69 0 9 -35 27 -217 110 -74 34 -113
82 -113 139 0 24 6 60 14 78 l14 34 -58 26 c-31 14 -62 26 -67 26 -5 0 -15
-17 -21 -39z"/>
<path d="M6505 5311 c-137 -37 -225 -145 -225 -276 0 -122 75 -265 163 -312
34 -17 31 -19 60 42 l23 48 -46 46 c-35 35 -48 58 -57 97 -15 63 -3 118 31
152 l25 25 17 -39 c9 -21 20 -48 24 -59 38 -103 90 -237 106 -273 12 -28 18
-32 37 -26 70 21 151 89 178 149 27 58 26 191 -2 252 -27 58 -92 129 -143 154
-44 21 -146 32 -191 20z m165 -156 c15 -8 38 -31 50 -50 18 -30 22 -47 18 -97
-4 -51 -9 -65 -32 -85 -15 -13 -31 -21 -35 -18 -5 2 -16 26 -25 52 -18 48 -41
111 -57 148 -24 60 -23 65 16 65 20 0 49 -7 65 -15z"/>
<path d="M1046 5069 c-3 -8 -7 -27 -9 -44 -3 -16 -13 -59 -22 -95 -10 -36 -21
-83 -25 -105 -4 -22 -17 -74 -27 -115 -11 -41 -23 -88 -26 -105 -3 -16 -8 -37
-12 -46 -6 -16 -5 -17 140 -49 22 -5 69 -16 105 -25 36 -9 83 -20 105 -24 53
-11 207 -49 271 -67 75 -21 93 -18 105 14 17 43 23 118 11 126 -19 11 -155 46
-183 46 -14 0 -34 6 -44 14 -16 12 -17 18 -7 57 6 24 21 82 33 129 12 47 22
101 23 120 1 34 -1 35 -52 49 -66 18 -64 20 -92 -109 -21 -92 -50 -202 -56
-208 -3 -5 -142 27 -172 39 -17 7 -22 14 -17 27 4 9 10 37 15 62 4 25 16 79
28 120 11 41 23 92 26 113 4 21 9 44 12 51 3 9 -6 16 -28 20 -86 18 -98 18
-102 5z"/>
<path d="M6795 4660 c-367 -214 -350 -203 -353 -238 -2 -18 2 -57 8 -86 9 -42
16 -55 33 -59 12 -3 65 -18 117 -32 52 -15 120 -34 150 -42 73 -19 104 -28
175 -48 33 -10 75 -20 93 -22 l33 -5 -6 38 c-20 112 -16 106 -70 121 -28 7
-75 20 -105 29 -30 8 -71 19 -90 24 -85 23 -150 44 -150 50 0 3 32 24 72 45
110 61 139 77 193 110 28 16 59 34 70 40 16 8 19 19 17 50 -5 76 -14 115 -25
114 -7 0 -80 -40 -162 -89z"/>
<path d="M6639 4051 c-132 -52 -206 -177 -197 -336 4 -66 34 -155 57 -170 10
-6 101 52 101 64 0 4 -8 23 -17 42 -48 92 10 241 97 251 21 3 25 -1 23 -22 -1
-14 -10 -95 -19 -180 -9 -85 -17 -171 -18 -190 l-1 -35 68 -3 c56 -2 78 2 125
23 67 31 94 54 127 110 70 120 51 280 -44 376 -81 81 -202 109 -302 70z m225
-191 c41 -46 51 -76 41 -127 -9 -48 -72 -113 -109 -113 -14 0 -26 3 -26 8 1
44 21 243 26 256 10 26 29 19 68 -24z"/>
<path d="M1254 3966 c-31 -31 -34 -40 -34 -91 0 -51 3 -60 34 -91 31 -31 39
-34 93 -34 52 0 63 3 86 28 56 59 55 147 -4 196 -25 21 -41 26 -86 26 -49 0
-59 -4 -89 -34z"/>
<path d="M6386 3428 c-2 -7 -11 -37 -20 -67 -9 -30 -13 -57 -9 -61 5 -4 28
-12 53 -19 25 -7 63 -19 85 -26 22 -7 60 -18 85 -25 25 -7 62 -19 83 -26 20
-8 46 -14 57 -14 11 0 28 -4 38 -9 9 -5 42 -16 72 -24 30 -9 93 -27 140 -41
101 -31 140 -33 140 -9 0 10 7 36 16 60 9 23 14 48 11 55 -2 7 -26 19 -53 26
-27 8 -67 19 -89 26 -22 8 -60 19 -85 26 -25 7 -63 18 -85 25 -22 7 -60 18
-85 25 -77 21 -132 38 -216 64 -89 29 -133 33 -138 14z"/>
<path d="M1220 3308 c-30 -11 -57 -22 -58 -24 -2 -1 1 -18 7 -36 12 -36 72
-100 106 -113 18 -7 17 -9 -13 -22 -31 -13 -33 -16 -27 -46 11 -47 36 -107 45
-107 5 0 21 5 37 11 15 6 42 15 58 19 74 20 408 139 418 149 8 8 4 30 -12 81
-19 57 -27 70 -40 65 -9 -4 -29 -11 -46 -17 -16 -5 -39 -13 -50 -18 -74 -30
-179 -60 -212 -60 -56 0 -100 31 -126 90 -12 28 -24 50 -27 49 -3 -1 -30 -10
-60 -21z"/>
<path d="M6390 3133 c-69 -22 -140 -78 -175 -138 -29 -51 -55 -138 -55 -189 0
-64 36 -150 82 -196 88 -88 234 -112 337 -55 59 32 115 91 138 145 9 19 20 44
26 54 20 39 21 143 2 193 -44 117 -153 194 -274 192 -36 0 -73 -3 -81 -6z
m118 -159 c87 -36 125 -108 102 -192 -44 -166 -310 -116 -310 58 0 59 28 102
85 133 38 21 76 21 123 1z"/>
<path d="M1615 2967 c-11 -6 -39 -23 -63 -37 -55 -33 -95 -90 -117 -167 -16
-59 -17 -67 -1 -128 35 -138 119 -226 254 -266 38 -11 53 -10 110 5 148 40
226 137 225 283 -1 41 -6 87 -13 102 -38 79 -49 95 -90 138 -62 63 -113 83
-208 82 -42 0 -86 -5 -97 -12z m167 -141 c116 -49 140 -180 47 -260 -76 -64
-177 -56 -235 19 -19 25 -24 44 -24 87 0 51 3 59 38 94 21 22 58 47 82 56 57
21 51 21 92 4z"/>
<path d="M5842 2741 c-23 -27 -42 -56 -41 -63 0 -7 34 -42 75 -78 117 -102
111 -94 88 -98 -69 -12 -160 -84 -195 -156 -26 -55 -26 -177 0 -232 22 -45 92
-118 136 -142 102 -55 177 -55 281 1 67 35 134 143 134 215 0 24 0 24 27 7
l27 -18 43 49 c24 26 43 54 43 61 0 6 -13 22 -29 35 -27 21 -102 89 -296 263
-148 133 -233 205 -243 205 -5 0 -28 -22 -50 -49z m283 -367 c64 -41 80 -70
80 -141 0 -55 -3 -65 -30 -93 -62 -65 -127 -70 -205 -18 -82 56 -97 174 -30
239 47 45 128 51 185 13z"/>
<path d="M2093 2447 c-39 -34 -120 -105 -180 -157 -59 -52 -118 -103 -130
-114 -13 -11 -23 -24 -23 -30 0 -6 23 -35 50 -64 l50 -53 117 103 c118 105
171 151 256 223 26 22 47 44 47 48 0 13 -92 107 -104 107 -6 0 -43 -28 -83
-63z"/>
<path d="M2276 2248 c-30 -40 -73 -95 -95 -123 -80 -100 -101 -143 -101 -216
0 -39 6 -78 15 -97 38 -74 142 -142 220 -142 49 0 53 -4 29 -32 -20 -22 -13
-33 55 -82 l48 -34 74 96 c41 52 108 138 149 191 124 157 124 158 103 175 -50
42 -96 76 -103 76 -3 0 -51 -57 -106 -126 -95 -121 -144 -164 -189 -164 -23 0
-87 35 -110 60 -14 16 -20 35 -19 69 0 44 7 56 108 186 l108 140 -30 25 c-52
43 -87 70 -94 70 -3 0 -31 -33 -62 -72z"/>
<path d="M5455 2083 c-108 -43 -206 -138 -220 -215 l-7 -36 57 -12 c59 -12 74
-7 75 26 0 6 19 30 42 53 56 54 120 75 180 57 24 -6 44 -19 46 -27 2 -9 -58
-55 -168 -128 -93 -62 -170 -118 -170 -125 0 -23 51 -86 93 -115 198 -136 484
32 465 273 -9 105 -69 195 -160 240 -62 31 -168 35 -233 9z m255 -273 c11 -26
10 -37 -6 -72 -40 -89 -157 -129 -220 -75 l-27 24 29 21 c88 64 190 131 200
131 6 1 17 -13 24 -29z"/>
<path d="M1606 2044 c-59 -60 -11 -163 76 -164 28 0 44 7 63 27 28 31 32 61
11 102 -33 63 -105 80 -150 35z"/>
<path d="M2840 1901 c0 -11 -4 -22 -10 -26 -5 -3 -14 -20 -19 -38 -5 -18 -26
-70 -46 -117 -43 -101 -55 -128 -66 -155 -4 -11 -19 -46 -33 -78 -14 -32 -26
-63 -26 -70 0 -7 32 -24 71 -39 l70 -26 14 31 c7 18 25 58 39 90 14 32 26 60
26 63 0 15 55 122 73 141 39 43 128 42 182 -1 46 -37 40 -100 -24 -251 -28
-66 -55 -128 -61 -137 -16 -28 -12 -36 28 -53 110 -48 100 -46 117 -22 8 12
15 27 15 34 0 7 4 21 10 31 5 9 15 33 23 52 8 19 22 51 30 70 47 106 57 144
57 209 0 58 -4 74 -30 113 -19 28 -49 55 -82 74 -47 26 -63 29 -139 29 -85 0
-86 0 -78 22 9 25 1 34 -55 57 -54 22 -86 21 -86 -3z"/>
<path d="M5023 1841 c-38 -15 -63 -32 -63 -41 0 -13 37 -112 70 -185 60 -134
45 -206 -52 -256 -21 -11 -38 -20 -38 -22 0 -6 37 -95 46 -111 11 -18 13 -17
57 8 29 17 56 44 73 74 l28 47 13 -34 c8 -19 19 -31 26 -28 7 3 37 15 67 28
30 12 56 23 58 24 2 2 -24 71 -56 145 -6 14 -30 72 -52 130 -23 58 -46 114
-50 125 -5 11 -18 42 -28 70 -11 27 -23 50 -28 51 -5 1 -37 -10 -71 -25z"/>
<path d="M3552 1653 c-71 -34 -116 -118 -137 -248 -3 -22 -13 -83 -21 -135
-53 -322 -51 -298 -23 -304 88 -19 134 -26 165 -26 19 0 43 -4 52 -9 10 -5 54
-12 98 -16 l80 -7 11 58 c6 33 10 60 8 62 -3 4 -92 20 -174 31 -35 5 -67 13
-71 18 -9 9 4 101 49 356 20 118 134 140 220 42 19 -23 36 -33 44 -28 25 15
87 77 87 86 0 23 -97 103 -145 120 -65 23 -197 23 -243 0z"/>
<path d="M4298 1450 c-30 -33 -38 -48 -38 -79 0 -45 23 -95 53 -116 33 -23
128 -20 160 6 60 46 58 152 -4 203 -24 21 -41 26 -81 26 -47 0 -54 -4 -90 -40z"/>
</g>
</svg>
