<svg xmlns="http://www.w3.org/2000/svg" viewBox="0 0 500 500">
  <path fill="#92e3a9" d="M441.4 270.76c2-26.75-4.24-54.7-12.64-79.6-12.47-37-36.67-74.94-77.44-83.69-23.51-5-47.43.36-67.58 13-19.39 12.17-34.5 27.88-58.33 30.93-24.1 3.08-48.83 1.84-73.06 1.84-62.29 0-112.85 65-100.21 132.71S124.36 400.6 174.92 400.6c45.43 0 82.8-27.07 126-34.34 21.4-3.6 42.88.66 64.06-4.74 24.61-6.28 47.75-21.26 61.39-42.95 9.24-14.77 13.76-31.06 15.03-47.81Z"/>
  <path fill="#fff" d="M441.4 270.76c2-26.75-4.24-54.7-12.64-79.6-12.47-37-36.67-74.94-77.44-83.69-23.51-5-47.43.36-67.58 13-19.39 12.17-34.5 27.88-58.33 30.93-24.1 3.08-48.83 1.84-73.06 1.84-62.29 0-112.85 65-100.21 132.71S124.36 400.6 174.92 400.6c45.43 0 82.8-27.07 126-34.34 21.4-3.6 42.88.66 64.06-4.74 24.61-6.28 47.75-21.26 61.39-42.95 9.24-14.77 13.76-31.06 15.03-47.81Z" opacity=".7"/>
  <ellipse cx="246.69" cy="417.76" fill="#2e353a" rx="194.55" ry="5.42"/>
  <g stroke="#2e353a" stroke-linecap="round" stroke-linejoin="round">
    <path fill="none" d="M345.25 412.82h-18V88.44l18 20.93v303.45z"/>
    <path fill="none" d="M327.42 336.44h17.66l-17.66-17.07h17.66l-17.66 17.07zm0-17.5h17.66l-17.66-17.07h17.66l-17.66 17.07zm0 52.35h17.66l-17.66-17.07h17.66l-17.66 17.07zm0-17.5h17.66l-17.66-17.07h17.66l-17.66 17.07zm0-52.35h17.66l-17.66-17.07h17.66l-17.66 17.07zm0-17.5h17.66l-17.66-17.07h17.66l-17.66 17.07zm0-17.5h17.66l-17.66-17.07h17.66l-17.66 17.07zm0-17.5h17.66l-17.66-17.07h17.66l-17.66 17.07zm0-17.5h17.66l-17.66-17.07h17.66l-17.66 17.07zm0-17.5h17.66l-17.66-17.07h17.66l-17.66 17.07zm0-17.5h17.66l-17.66-17.07h17.66l-17.66 17.07zm0-17.5h17.66l-17.66-17.07h17.66l-17.66 17.07zm0-17.5h17.66l-17.66-17.07h17.66l-17.66 17.07zm0-17.5h17.66l-17.66-17.07h17.66l-17.66 17.07zm0-17.5h17.66l-17.66-17.07h17.66l-17.66 17.07zm101.39.47-8.72-5.49h-62.22l-7.6 5.49h78.54z"/>
    <path fill="#2e353a" d="M278.25 126.44h152v4h-152z"/>
    <path fill="none" d="m420.09 121.42-92.84-32.98 30.62 32.98m-30.62-32.98-49 38"/>
    <path fill="#2e353a" d="M320.75 134.94h37.5v24h-37.5zm0 254.36h37.5v24h-37.5z"/>
    <path fill="#fff" d="M328.56 139.94h21.87v7h-21.87zm101.69-9.5v43.12"/>
    <path fill="#2e353a" d="M424.85 188.28h11.11v12.59h-11.11z"/>
    <path fill="none" d="m424.85 188.28 5.55-15.54 5.56 15.54"/>
  </g>
  <path fill="#fff" stroke="#2e353a" stroke-linecap="round" stroke-linejoin="round" stroke-width="1.095" d="M282.17 386.24V364h-65.55v22.26a32.21 32.21 0 0 1-7 20l-2.87 3.62H292l-2.88-3.62a32.26 32.26 0 0 1-6.95-20.02Z"/>
  <path fill="#92e3a9" d="M212.59 401.83h73.61a32.18 32.18 0 0 1-4-15.59V364h-65.58v22.26a32.18 32.18 0 0 1-4.03 15.57Z" style="mix-blend-mode:multiply"/>
  <path fill="#2e353a" stroke="#2e353a" stroke-linecap="round" stroke-linejoin="round" stroke-width="1.095" d="M216.62 367.33h65.55v9.4h-65.55z"/>
  <rect width="263.47" height="197.6" x="117.66" y="173.4" fill="#2e353a" stroke="#2e353a" stroke-linecap="round" stroke-linejoin="round" stroke-width="1.095" rx="9.29"/>
  <path fill="#fff" stroke="#2e353a" stroke-linecap="round" stroke-linejoin="round" stroke-width="1.095" d="M117.66 340.29h263.47v21.42a9.29 9.29 0 0 1-9.29 9.29H127a9.29 9.29 0 0 1-9.29-9.29v-21.42h0Z"/>
  <path fill="#92e3a9" stroke="#2e353a" stroke-linecap="round" stroke-linejoin="round" stroke-width="1.095" d="M130.91 185.7h236.96v139.6H130.91z"/>
  <path fill="#2e353a" stroke="#2e353a" stroke-linecap="round" stroke-linejoin="round" stroke-width="1.095" d="M254.25 355.65a4.86 4.86 0 1 0-4.86 4.85 4.85 4.85 0 0 0 4.86-4.85Z"/>
  <path fill="#fff" stroke="#2e353a" stroke-linecap="round" stroke-linejoin="round" stroke-width="1.095" d="M206.78 409.87h85.24v3.97h-85.24z"/>
  <g stroke="#2e353a">
    <path fill="#2e353a" stroke-linecap="round" stroke-linejoin="round" stroke-width="1.095" d="M326.51 220.68a23.72 23.72 0 0 0 6.49-21.32l-14.87 14.87a4.51 4.51 0 0 1-6.36 0l-12.36-12.36a4.5 4.5 0 0 1 0-6.37l14.86-14.86a23.71 23.71 0 0 0-26.64 31.87L249.26 250l-3.7-3.71 6-6a1.67 1.67 0 0 0 0-2.34l-4.68-4.68a1.65 1.65 0 0 0-2.33 0l-2.34 2.34-5.07-5.06 1.95-1.95a2.21 2.21 0 0 0 0-3.12l-41.87-41.87a10.74 10.74 0 0 0-15.2 0l-4.28 4.28a10.73 10.73 0 0 0 0 15.19l41.87 41.88a2.21 2.21 0 0 0 3.12 0l1.95-1.95 5.06 5.07-2.33 2.33a1.65 1.65 0 0 0 0 2.34l4.67 4.68a1.67 1.67 0 0 0 2.34 0l6-6 3.64 3.64-31.82 31a23.72 23.72 0 0 0-31.88 26.64l14.87-14.86a4.5 4.5 0 0 1 6.37 0l12.4 12.28a4.5 4.5 0 0 1 0 6.37l-14.86 14.86a23.72 23.72 0 0 0 26.65-31.87l31.82-31L301 311.83a8.89 8.89 0 0 0 2 9.5l10.47 10.47 12.56-12.57-10.47-10.46a8.89 8.89 0 0 0-9.5-2l-43.32-43.32L301.15 226a23.72 23.72 0 0 0 25.36-5.32Z"/>
    <path fill="#fff" stroke-miterlimit="10" d="m223.15 294.16 75.33-73.49A23.71 23.71 0 0 0 330.35 194l-14.86 14.86a4.5 4.5 0 0 1-6.37 0l-12.36-12.36a4.49 4.49 0 0 1 0-6.36l14.86-14.87a23.71 23.71 0 0 0-26.62 31.9l-75.33 73.49a23.71 23.71 0 0 0-31.87 26.64l14.86-14.86a4.5 4.5 0 0 1 6.37 0l12.36 12.36a4.49 4.49 0 0 1 0 6.36L196.5 326a23.72 23.72 0 0 0 26.65-31.87Z"/>
    <path fill="#fff" stroke-miterlimit="10" d="M217.35 286.45a3.08 3.08 0 0 1 0-4.35l67.73-65.89a3.09 3.09 0 0 1 4.36 0 3.09 3.09 0 0 1 0 4.36l-67.73 65.88a3.09 3.09 0 0 1-4.36 0Z"/>
    <path fill="#fff" stroke-miterlimit="10" d="m232.374 240.517 5.063-5.063 73.051 73.052-5.062 5.062z"/>
    <path fill="#fff" stroke-miterlimit="10" d="m323.38 313.9-12.56 12.56L300.35 316a8.89 8.89 0 0 1 0-12.57 8.88 8.88 0 0 1 12.56 0Zm-105.223-80.195 12.466-12.467 10.126 10.126-12.467 12.466z"/>
    <path fill="#fff" stroke-miterlimit="10" d="m175.113 182.478 4.285-4.285a10.74 10.74 0 0 1 15.189 0l41.875 41.875a2.2 2.2 0 0 1 0 3.111l-16.363 16.363a2.2 2.2 0 0 1-3.111 0l-41.875-41.875a10.74 10.74 0 0 1 0-15.189Z"/>
    <rect width="27.54" height="9.92" x="223.08" y="234.98" fill="#fff" stroke-miterlimit="10" rx="1.65" transform="rotate(-45 236.857 239.94)"/>
    <path fill="#fff" stroke-miterlimit="10" d="m222.44 233.32-3.44 3.45-41.12-41.12a2.44 2.44 0 0 1 0-3.45 2.43 2.43 0 0 1 3.45 0Zm5.87-5.87-3.46 3.45-41.12-41.12a2.44 2.44 0 0 1 0-3.45 2.43 2.43 0 0 1 3.45 0Zm5.87-5.87-3.46 3.42-41.12-41.09a2.44 2.44 0 0 1 0-3.45 2.43 2.43 0 0 1 3.45 0Z"/>
  </g>
  <path fill="#fff" stroke="#2e353a" stroke-miterlimit="10" d="M371.82 415.07h-3.33l-21.53-176.66h3.34l21.52 176.66zm26 0h-3.33l-21.53-176.66h3.34l21.52 176.66z"/>
  <path fill="#fff" stroke="#2e353a" stroke-miterlimit="10" d="M376.51 253.05h-25.99l-.67-5.45h26l.66 5.45zm2.45 20.12h-25.99l-.66-5.45h25.99l.66 5.45zm2.46 20.12h-26l-.66-5.45h25.99l.67 5.45zm2.45 20.13h-25.99l-.67-5.45h25.99l.67 5.45zm2.45 20.12h-25.99l-.67-5.45h25.99l.67 5.45zm2.45 20.12h-25.99l-.66-5.45h25.99l.66 5.45zm2.45 20.13h-25.99l-.66-5.45h25.99l.66 5.45zm2.46 20.12h-26l-.66-5.45h25.99l.67 5.45z"/>
  <path fill="none" stroke="#2e353a" stroke-miterlimit="10" stroke-width=".5" d="M350.12 249.74h3.4m-2.6 1.6h6.6m18.59 0h-4.8m7.2 19.39h-4.4m-20.79 1h10.2m-8.4 18.79h8.8m-8.4 1.6h4.8m23.38 18.19h-5.39m5 1.6h-9m16.83 59.83h-8.25m-18-1.5h5m11.75 1.5h-6.5m-7.75 19.25h7m-5.5 1.75h8m-16-61h2.25m22.25-.5h-8.25"/>
  <path fill="#2e353a" stroke="#2e353a" stroke-linecap="round" stroke-linejoin="round" stroke-width="1.095" d="m176.97 309.44-3.96 5.16-86.14-67.25 3.97-5.16 86.13 67.25z"/>
  <path fill="#2e353a" stroke="#2e353a" stroke-linecap="round" stroke-linejoin="round" stroke-width="1.095" d="m86.87 309.44 3.97 5.16 86.13-67.25-3.96-5.16-86.14 67.25zm90.1 75.54-2.45 6.65-87.65-68.74 2.51-6.71 87.59 68.8z"/>
  <path fill="#2e353a" stroke="#2e353a" stroke-linecap="round" stroke-linejoin="round" stroke-width="1.095" d="m86.87 384.98.6 7.8 89.5-69.89-3.96-5.15-86.14 67.24z"/>
  <path fill="#2e353a" stroke="#2e353a" stroke-linecap="round" stroke-linejoin="round" stroke-width="1.095" d="M85.4 241.48h3.5v173.6h-3.5zm88.55 0h3.5v173.6h-3.5z"/>
  <path fill="#fff" stroke="#2e353a" stroke-linecap="round" stroke-linejoin="round" stroke-width="1.095" d="m160.12 309.44-3.97 5.16-86.13-67.25 3.96-5.16 86.14 67.25z"/>
  <path fill="#fff" stroke="#2e353a" stroke-linecap="round" stroke-linejoin="round" stroke-width="1.095" d="m70.02 309.44 3.96 5.16 86.14-67.25-3.97-5.16-86.13 67.25zm90.1 75.54-2.46 6.65-87.64-68.74 1.26-6.71 88.84 68.8z"/>
  <path fill="#fff" stroke="#2e353a" stroke-linecap="round" stroke-linejoin="round" stroke-width="1.095" d="m70.02 384.98.6 7.8 89.5-69.89-3.97-5.15-86.13 67.24z"/>
  <path fill="#fff" stroke="#2e353a" stroke-linecap="round" stroke-linejoin="round" stroke-width="1.095" d="M68.54 241.48h3.5v173.6h-3.5zm88.55 0h3.5v173.6h-3.5z"/>
  <path fill="#fff" stroke="#2e353a" stroke-linecap="round" stroke-linejoin="round" stroke-width="1.095" d="M64.04 239.87H165.1v5.5H64.04z"/>
  <path fill="#2e353a" stroke="#2e353a" stroke-linecap="round" stroke-linejoin="round" stroke-width="1.095" d="M152.62 239.87h28.05v5.5h-28.05z"/>
  <path fill="#fff" stroke="#2e353a" stroke-linecap="round" stroke-linejoin="round" stroke-width="1.095" d="M64.04 311.91H165.1v5.5H64.04z"/>
  <path fill="#2e353a" stroke="#2e353a" stroke-linecap="round" stroke-linejoin="round" stroke-width="1.095" d="M152.62 311.91h28.05v5.5h-28.05z"/>
  <path fill="#2e353a" stroke="#2e353a" stroke-miterlimit="10" stroke-width=".973" d="M291.03 415.07h-7.91l10.55-61.81h7.92l-10.56 61.81z"/>
  <path fill="#fff" stroke="#2e353a" stroke-miterlimit="10" stroke-width=".973" d="M306.86 415.07h7.92l-10.56-61.81h-7.91l10.55 61.81z"/>
  <path fill="#2e353a" stroke="#2e353a" stroke-miterlimit="10" stroke-width=".973" d="M403.35 415.07h-7.91l10.55-61.81h7.91l-10.55 61.81z"/>
  <path fill="#fff" stroke="#2e353a" stroke-miterlimit="10" stroke-width=".973" d="M419.18 415.07h7.92l-10.56-61.81h-7.91l10.55 61.81z"/>
  <path fill="#92e3a9" stroke="#2e353a" stroke-miterlimit="10" stroke-width=".973" d="M273.75 335.39h150.97v20.97H273.75z"/>
  <path fill="#92e3a9" stroke="#2e353a" stroke-miterlimit="10" stroke-width=".973" d="M277.43 335.39H428.4v20.97H277.43z"/>
  <path fill="#2e353a" d="M279.9 356.36h12.81l6.62-20.97h-12.81l-6.62 20.97zm50.72-20.97H317.8l-6.62 20.97H324l6.62-20.97zm93.85 0h-12.82l-6.62 20.97h12.82l6.62-20.97zm-31.29 0h-12.81l-6.62 20.97h12.81l6.62-20.97zm-31.28 0h-12.82l-6.62 20.97h12.82l6.62-20.97z"/>
  <path fill="none" stroke="#2e353a" stroke-miterlimit="10" d="M427.57 344.7h-24.98m24.54 3.5h-3.94m-146.4-.87h24.98m-24.55-3.95h31.56"/>
</svg>
