<svg xmlns="http://www.w3.org/2000/svg" viewBox="-22 0 512 512.001">
  <path fill="#f5b556" d="M443.797 71.2H290.176v30.75H427.75l-9.8 38.675c-12.25 48.324-50.184 84.617-97.02 95.816l-30.754 3.414v30.95c74.398 0 139.304-50.508 157.582-122.625L461.5 93.95c2.926-11.54-5.797-22.75-17.703-22.75Zm-418.02 0h153.618v30.75H41.825l9.8 38.675c12.246 48.324 50.18 84.617 97.02 95.816l30.75 3.414v30.95c-74.399 0-139.305-50.508-157.579-122.625L8.07 93.95C5.148 82.41 13.871 71.2 25.777 71.2Zm0 0"/>
  <path fill="#fed066" d="M257.906 282.879h-46.242s7.195 74.316-52.047 136.629h150.336c-59.242-62.313-52.047-136.63-52.047-136.63Zm0 0"/>
  <path fill="#f5b556" d="M257.906 282.879h-23.12s-25.993 90.531 23.648 136.629h51.523c-59.246-62.313-52.05-136.63-52.05-136.63Zm0 0"/>
  <path fill="#fed066" d="M107.645 7.5c0 52.844-.012 105.777-.012 106.477 0 107.043 71.847 167.898 107.527 191.52a35.579 35.579 0 0 0 39.254 0c35.68-23.622 107.524-84.477 107.524-191.52 0-.7-.008-53.633-.012-106.477Zm0 0"/>
  <path fill="#f5b556" d="M361.926 7.5H309.94c.004 52.844.016 105.777.016 106.477 0 101.007-63.969 160.882-101.164 187.16a245.303 245.303 0 0 0 6.367 4.355 35.579 35.579 0 0 0 39.254 0c35.68-23.62 107.524-84.472 107.524-191.515 0-.7-.008-53.633-.012-106.477Zm0 0"/>
  <path fill="#f5b556" d="M372.695 43.977H96.88c-4.86 0-8.797-3.938-8.797-8.793V16.297A8.796 8.796 0 0 1 96.879 7.5h275.816a8.796 8.796 0 0 1 8.797 8.797v18.887c0 4.855-3.937 8.793-8.797 8.793Zm0 0"/>
  <path fill="#e8a246" d="M372.695 7.5h-43.074v36.477h43.074c4.86 0 8.797-3.938 8.797-8.793V16.297a8.796 8.796 0 0 0-8.797-8.797Zm0 0"/>
  <path fill="#3c5666" d="M337.488 504.5H132.082a7.713 7.713 0 0 1-7.71-7.715v-81.457a7.712 7.712 0 0 1 7.71-7.71h205.406a7.713 7.713 0 0 1 7.715 7.71v81.457a7.714 7.714 0 0 1-7.715 7.715Zm0 0"/>
  <path fill="#194451" d="M337.488 407.617h-44.156V504.5h44.156a7.714 7.714 0 0 0 7.715-7.715v-81.457a7.713 7.713 0 0 0-7.715-7.71Zm0 0"/>
  <path fill="#f2f2f2" d="M158.77 468.195v-24.273c0-1.055.851-1.906 1.906-1.906h148.222c1.051 0 1.907.851 1.907 1.906v24.273a1.91 1.91 0 0 1-1.907 1.907H160.676a1.906 1.906 0 0 1-1.906-1.907Zm78.535-387.773 15.93 49.023a2.65 2.65 0 0 0 2.519 1.828H307.3c2.566 0 3.633 3.286 1.558 4.793l-41.703 30.301a2.642 2.642 0 0 0-.96 2.961l15.929 49.024c.793 2.441-2.004 4.468-4.078 2.96l-41.703-30.296a2.644 2.644 0 0 0-3.114 0l-41.703 30.297c-2.074 1.507-4.87-.52-4.078-2.961l15.93-49.024a2.642 2.642 0 0 0-.961-2.96l-41.703-30.302c-2.074-1.507-1.008-4.793 1.558-4.793h51.547a2.65 2.65 0 0 0 2.52-1.828l15.93-49.023c.789-2.442 4.242-2.442 5.035 0Zm0 0"/>
  <path d="M316.953 130.79a10.126 10.126 0 0 0-9.652-7.017h-48.024l-14.84-45.668a10.117 10.117 0 0 0-9.648-7.015c-4.414 0-8.293 2.82-9.652 7.015l-14.84 45.668h-48.024c-4.41 0-8.289 2.82-9.652 7.016a10.123 10.123 0 0 0 3.688 11.348l38.851 28.226-14.84 45.672a10.121 10.121 0 0 0 3.688 11.348 10.124 10.124 0 0 0 11.93 0l38.847-28.23 38.852 28.23a10.155 10.155 0 0 0 5.965 1.941c2.09 0 4.183-.648 5.964-1.941a10.127 10.127 0 0 0 3.692-11.352l-14.84-45.668 38.852-28.226a10.127 10.127 0 0 0 3.683-11.348Zm-54.21 29.51a10.133 10.133 0 0 0-3.684 11.345l11.316 34.828-29.625-21.524a10.118 10.118 0 0 0-11.93 0l-29.625 21.524 11.317-34.828a10.137 10.137 0 0 0-3.688-11.348l-29.625-21.52h36.617c4.41 0 8.29-2.82 9.653-7.015l11.316-34.825 11.317 34.825a10.122 10.122 0 0 0 9.652 7.011h36.617Zm0 0"/>
  <path d="M464.129 73.64c-4.918-6.316-12.328-9.94-20.332-9.94h-74.363l-.004-12.223h3.265c8.985 0 16.297-7.313 16.297-16.297V16.297C388.992 7.312 381.68 0 372.695 0H96.88c-8.99 0-16.298 7.313-16.298 16.297v18.887c0 8.984 7.309 16.293 16.297 16.293h3.262v12.222H25.777c-8.007 0-15.418 3.625-20.336 9.942C.527 79.96-1.164 88.03.801 95.793l13.742 54.227c9.094 35.886 29.113 67.16 57.89 90.437 27.93 22.59 61.489 35.54 97.22 37.563a272.495 272.495 0 0 0 33.94 28.628c-2.19 21.48-10.077 58.422-37.202 93.47h-34.309c-8.39 0-15.215 6.823-15.215 15.214v81.453c0 8.39 6.824 15.215 15.215 15.215h205.406c8.39 0 15.215-6.824 15.215-15.215v-81.457c0-8.387-6.824-15.21-15.215-15.21H303.18c-27.125-35.052-35.012-71.993-37.203-93.47a272.495 272.495 0 0 0 33.941-28.628c35.73-2.024 69.289-14.973 97.219-37.567 28.777-23.273 48.797-54.547 57.89-90.433l13.743-54.227c1.964-7.762.277-15.832-4.641-22.152Zm-94.692 40.337v-4.528h48.672l-7.43 29.332c-9.222 36.383-34.41 66.399-67.753 82.047 17.601-32.683 26.512-68.504 26.512-106.851ZM126.645 220.828c-33.34-15.648-58.532-45.66-67.75-82.047L51.46 109.45h48.672v4.528c0 38.347 8.91 74.168 26.512 106.851Zm-44.778 7.965C55.63 207.57 37.38 179.055 29.086 146.336L15.344 92.109a10.69 10.69 0 0 1 1.937-9.257 10.701 10.701 0 0 1 8.496-4.153h74.36v15.75H41.824c-2.312 0-4.5 1.07-5.922 2.895a7.52 7.52 0 0 0-1.351 6.449l9.8 38.672c12.028 47.445 48.29 85.21 94.981 99.207a250.68 250.68 0 0 0 2.57 3.691 246.339 246.339 0 0 0 12.332 15.907c-26.464-4.297-51.187-15.348-72.367-32.477Zm255.621 186.324c.117 0 .215.094.215.211v81.457a.217.217 0 0 1-.215.215H132.082a.213.213 0 0 1-.21-.215v-81.457a.21.21 0 0 1 .21-.21Zm-52.86-15h-99.687c21.489-31.398 29.66-63.148 32.704-84.797a42.908 42.908 0 0 0 17.14 3.598c5.84 0 11.672-1.219 17.14-3.598 3.044 21.649 11.22 53.399 32.704 84.797Zm6.731-134.762c-.09.09-.183.18-.273.278-14.73 14.953-29.399 26.05-40.813 33.61a28.013 28.013 0 0 1-30.972 0 256.602 256.602 0 0 1-40.817-33.61c-.086-.098-.18-.184-.273-.278-8.195-8.347-16.41-17.882-24.082-28.68-25.875-36.41-38.996-77.69-38.996-122.698l.008-62.5h19.605a7.5 7.5 0 0 0 7.5-7.5 7.5 7.5 0 0 0-7.5-7.5H96.88a1.299 1.299 0 0 1-1.297-1.297V16.297c0-.715.582-1.297 1.297-1.297h275.816c.715 0 1.297.582 1.297 1.297v18.887c0 .71-.582 1.293-1.297 1.293h-203.04a7.5 7.5 0 1 0 0 15H354.43l.011 62.5c0 45.011-13.12 86.293-38.996 122.699-7.675 10.797-15.886 20.332-24.086 28.68ZM454.23 92.11l-13.742 54.227c-8.293 32.719-26.547 61.234-52.785 82.457-21.176 17.129-45.902 28.18-72.363 32.477a245.236 245.236 0 0 0 14.898-19.594c46.696-14 82.957-51.766 94.98-99.211l9.802-38.672a7.507 7.507 0 0 0-1.352-6.45 7.507 7.507 0 0 0-5.918-2.894h-58.313l-.003-15.75h74.363c3.344 0 6.437 1.516 8.496 4.153a10.716 10.716 0 0 1 1.937 9.257Zm0 0"/>
  <path d="M151.266 443.922v24.273c0 5.188 4.222 9.407 9.41 9.407h148.222c5.188 0 9.407-4.22 9.407-9.407v-24.273c0-5.188-4.22-9.406-9.407-9.406h-15.867a7.497 7.497 0 0 0-7.5 7.5 7.5 7.5 0 0 0 7.5 7.5h10.274v13.086h-137.04v-13.086h91.856a7.5 7.5 0 0 0 7.5-7.5c0-4.145-3.355-7.5-7.5-7.5h-97.445c-5.188 0-9.41 4.218-9.41 9.406Zm0 0"/>
</svg>
