<svg xmlns="http://www.w3.org/2000/svg" version="1.0" viewBox="0 0 810 810">
  <path d="M504.5 102.2c-.2.7-.6 2.4-.8 3.8-.7 3.2-5.6 19.2-6 19.6-.2.2-2.4-1.5-4.8-3.9-3.7-3.5-5.8-4.6-11.9-6.1-7.2-1.8-7.8-1.8-13.5-.2-7.1 2.1-11.4 5.1-15.3 10.9-11.2 16.4-6.9 35.2 10.1 43.9 4.9 2.5 18.7 3.2 20.9 1 2-2 2.8-1.4 2.6 1.9-.3 3 0 3.2 5.7 5 3.3 1.1 6.5 1.7 7.1 1.5.7-.3 1.7-2.4 2.3-4.8 1.7-7.4 4.1-15.9 7.6-27.8 3.3-11.2 4.2-14.7 6-21.5 1-3.9 2.1-7.9 2.5-9 2.6-6.7 3.7-11.7 2.6-12-.6-.1-3.5-1-6.5-1.9-6.4-1.9-8-2-8.6-.4zm-18.4 29.1c4.4 2.9 5.9 6 5.9 12.1 0 10.3-6.1 17-15.2 16.9-13.9-.2-19.5-15.6-9.6-26.8 3.8-4.4 4.2-4.5 9.7-4.5 4.4 0 6.6.6 9.2 2.3zm-105.5-24.1c-.3.7-.7 13.3-1 28L379 162h16v-15.4c0-16 .9-20.5 4.7-23.7 2.6-2.2 7-3.9 10.1-3.9 3.7 0 9 3.4 10.2 6.6.6 1.4 1 10.4 1 20v17.5l7.8-.3 7.7-.3.3-19.9c.2-19.2.2-20-2.2-25.1-1.7-3.9-3.6-6.2-6.8-8.2-3.9-2.5-5.1-2.8-13.3-2.8-8.7 0-15.3 1.7-17 4.5-1.1 1.8-2.4 1-2.7-1.8-.3-2.6-.5-2.7-7.1-3-4.8-.2-6.8.1-7.1 1zm-45.9 6.8c-9.5 1.7-20.4 10.8-22.9 19.2-5.8 19.5 8.3 38.8 28.3 38.8 3.9 0 12.5-2.3 17.8-4.7 4.5-2 11.1-8.1 11.1-10.3 0-1.5-6.8-7-8.6-7-.3 0-2.2 1.3-4 3-5 4.3-12.9 6.4-18.8 4.9-4.3-1.1-10.5-6.3-9.2-7.7.3-.2 2.2-.8 4.3-1.2 4.3-.9 18.9-4.5 24.3-6 1.9-.6 5.3-1.4 7.5-1.8 3.7-.7 4-1.1 4.3-4.4.3-3.7-3-11.1-7-15.4-5.4-6-17-9.2-27.1-7.4zm13.9 14.1c4.8 2.9 5 5.6.7 7.4-2 .8-4.4 1.5-5.4 1.5-1.1 0-5.2.9-9.1 2-4 1.1-7.6 2-8 2-.5 0-.8-1.7-.8-3.8 0-2.9.7-4.6 3.1-7 1.8-1.8 4.3-3.5 5.8-3.8 1.4-.3 3.1-.7 3.6-.9 1.8-.6 7 .7 10.1 2.6zm-83.6-1.3c-3 1.5-5.7 2.8-5.9 2.9-.2.1.8 2.7 2.3 5.6 3.3 6.8 3.3 7.6-.4 8.8-3.6 1.3-3.8 3.4-1 8.9 2.3 4.4 2.8 4.7 5.6 2.5 1-.8 2.5-1.5 3.2-1.5.7 0 4 5.5 7.2 12.2 7 14.3 7.3 14.7 12.4 18.2 5.2 3.5 10.8 3.5 18.9-.3 3.4-1.5 7.3-4 8.7-5.5l2.4-2.7-4.2-4.1-4.1-4.2-2.3 2.1c-1.3 1.1-3.4 2.3-4.7 2.6-4.8 1.2-6.7-.7-12.5-12.7-3.1-6.3-5.6-12-5.6-12.6 0-.6 2.5-2.2 5.5-3.5 6.2-2.9 6.5-3.8 3.4-10.1l-2-4.3-6 3.1c-3.3 1.7-6.3 2.8-6.7 2.4-.4-.4-1.8-2.8-3.2-5.4-1.4-2.6-3.2-4.8-4-4.9-.8-.1-4 1-7 2.5zM233.5 161c-.3.5-1.5 1-2.5 1-3 0-12.4 9.9-14.5 15.2-1.8 4.9-3.1 5.9-4.1 3.3-.4-1.1-1.3-1.3-2.8-.9-3.2 1-9.6 6.4-9.6 8.1 0 .8 2 4.1 4.5 7.2 5.2 6.7 11.8 15 20 25.6 6.8 8.8 8.3 10.5 9.4 10.5 1.4 0 11.1-8.3 11.1-9.4 0-.6-3.4-5.4-7.6-10.6-10.8-13.6-12.4-16.3-12.4-21.1 0-5.5 2.6-9.5 7.6-12 7.3-3.5 11.2-1.3 20.9 11.6 2.9 3.8 6.2 7.9 7.3 9.1 1 1.1 2.5 3 3.1 4.2.6 1.2 1.9 2.2 2.9 2.2 2.1 0 11.2-7.7 11.2-9.4 0-.7-1.5-3-3.3-5.2-1.8-2.1-6.9-8.6-11.4-14.4-9.7-12.6-14.7-16-23.6-16-3.1 0-5.9.4-6.2 1zm313.1 8.7c-6 6.5-5.9 13 .4 18.7 3.3 3 4.8 3.6 8.5 3.6 5.5 0 10.5-4 12.5-9.9 1.2-3.6 1.1-4.5-.5-8.2-2.6-5.6-4.8-6.9-12.2-6.9-5.5 0-6.5.3-8.7 2.7zm85.2 20.1c-1.8 1.5-5.1 4.1-7.3 5.7-2.2 1.6-4.4 3.3-5 3.7-.5.5-4.4 3.4-8.5 6.4-4.1 3.1-8.4 6.3-9.5 7.2-1.1.9-6.3 4.8-11.5 8.7-13.8 10.2-13.2 9.4-10.6 13.1 1.1 1.8 6 8.3 10.7 14.5 9.3 12.2 16.6 19.7 21.4 22.1 7.9 4 9.1 4.3 17.9 4.3 7.8 0 9.9-.4 14.6-2.7 14.3-6.9 23-21.1 21.7-35.3-.6-5.9-1-7.5-4.5-15.5-1.5-3.4-23.3-33.3-25.2-34.5-.5-.3-2.4.7-4.2 2.3zm8.7 25.4c10.9 14 12.8 22.2 7.5 31.4-3.7 6.5-9 10.7-16 12.8-5 1.5-5.8 1.5-10.5 0-2.7-.9-6.5-2.7-8.2-4.1-2.9-2.1-13.9-15.9-14.5-18.2-.3-.8 13.6-12.2 22.7-18.6 2.3-1.7 6.2-4.5 8.5-6.3 2.4-1.7 4.6-3.2 5-3.2.4 0 2.9 2.8 5.5 6.2zm-460.3-2.1c-6.4 2.5-14 9.7-17.3 16.6-1.7 3.4-2.5 7-2.7 12.6-.5 8.8.5 12.2 5.4 18.2 7.2 9.2 18.2 13.6 28.1 11.4 14.4-3.3 26.3-17.8 26.3-32.3 0-20.6-20.2-34-39.8-26.5zm13.2 13.4c5.3 2.2 11.4 8.7 12.2 12.9 1.9 10.6-6.6 18.9-17.8 17.2-3.5-.5-5.4-1.6-8.8-5.1-3.8-3.9-4.4-5.1-4.8-9.7-.5-6.4 2.2-11 8.3-14.5 4.7-2.7 6.1-2.8 10.9-.8zm-52.2 37.4c-1.4 4.6-1.6 11.8-.2 12.6.5.3.7 1.2.4 2-.4 1-1.2 1.2-3.1.4-1.3-.5-2.6-.9-2.9-.9-.2 0-1.8 2.7-3.4 6.1-2.5 4.8-2.9 6.4-1.9 7.5.6.8 1.5 1.4 2 1.4.4 0 5.9 2.4 12.1 5.4 6.2 2.9 16.1 7.7 22 10.5 6 2.8 11.6 5.1 12.5 5.1 1.2 0 2.7-2 4.6-5.8 1.5-3.2 2.7-6.3 2.7-6.9 0-.9-3.5-2.7-21.7-11-7.4-3.4-11.3-8.2-11.3-13.9 0-2.4.6-6 1.4-7.8l1.4-3.4-5.8-2.6c-3.1-1.4-6.2-2.6-6.7-2.6s-1.5 1.7-2.1 3.9zm509.3 15c-13.7 3.7-22.5 14.5-22.5 27.6 0 12.2 7.5 26.5 16.3 31.2 3.4 1.7 3.1 1.9 6-4.2l2.3-4.8-4.6-4.6c-3.5-3.5-4.8-5.8-5.7-9.7-1.5-6.3-.3-11.8 3.1-15.2l2.5-2.5 1.7 3.9c.9 2.1 2 4.8 2.4 5.9 3.8 10.3 9 23.7 10.6 27.3 1.2 2.8 1.8 3.2 3.7 2.6 7-2.1 15.1-8.9 17.8-14.9 2.7-5.8 2.6-19.1-.2-25.2-2.7-5.8-9.2-12.9-14.3-15.4-4.4-2.1-14.6-3.2-19.1-2zm16.5 15.6c1.5.8 3.8 3.1 5 5 1.8 3 2.2 4.7 1.8 9.7-.4 5.1-.9 6.5-3.2 8.5-1.5 1.3-3.1 2.1-3.5 1.8-.5-.2-1.6-2.6-2.5-5.2-1.8-4.8-4.1-11.1-5.7-14.8-2.4-6-2.3-6.5 1.6-6.5 2 0 4.9.7 6.5 1.5zm-562.4 8.6c-.3.8-.7 2.7-.9 4.4-.3 1.6-1.3 5.9-2.2 9.5-1 3.6-2.1 8.3-2.5 10.5-.4 2.2-1.7 7.4-2.7 11.5-1.1 4.1-2.3 8.8-2.6 10.5-.3 1.6-.8 3.7-1.2 4.6-.6 1.6-.5 1.7 14 4.9 2.2.5 6.9 1.6 10.5 2.5 3.6.9 8.3 2 10.5 2.4 5.3 1.1 20.7 4.9 27.1 6.7 7.5 2.1 9.3 1.8 10.5-1.4 1.7-4.3 2.3-11.8 1.1-12.6-1.9-1.1-15.5-4.6-18.3-4.6-1.4 0-3.4-.6-4.4-1.4-1.6-1.2-1.7-1.8-.7-5.7.6-2.4 2.1-8.2 3.3-12.9 1.2-4.7 2.2-10.1 2.3-12 .1-3.4-.1-3.5-5.2-4.9-6.6-1.8-6.4-2-9.2 10.9-2.1 9.2-5 20.2-5.6 20.8-.3.5-14.2-2.7-17.2-3.9-1.7-.7-2.2-1.4-1.7-2.7.4-.9 1-3.7 1.5-6.2.4-2.5 1.6-7.9 2.8-12 1.1-4.1 2.3-9.2 2.6-11.3.4-2.1.9-4.4 1.2-5.1.3-.9-.6-1.6-2.8-2-8.6-1.8-9.8-1.8-10.2-.5zM679.5 344c-36.7 21.4-35 20.3-35.3 23.8-.2 1.8.2 5.7.8 8.6.9 4.2 1.6 5.5 3.3 5.9 1.2.3 6.5 1.8 11.7 3.2 5.2 1.5 12 3.4 15 4.2 7.3 1.9 10.4 2.8 17.5 4.8 3.3 1 7.5 2 9.3 2.2l3.3.5-.6-3.8c-2-11.2-1.6-10.6-7-12.1-2.8-.7-7.5-2-10.5-2.9-3-.8-7.1-1.9-9-2.4-8.5-2.3-15-4.4-15-5 0-.3 3.2-2.4 7.2-4.5 11-6.1 13.9-7.7 19.3-11 2.8-1.6 5.9-3.4 7-4 1.6-.8 1.9-1.9 1.7-5-.5-7.6-1.4-11.5-2.5-11.4-.7 0-8 4-16.2 8.9zm-15.6 60.9c-13.2 5.2-20.6 17.7-19.7 33.6.4 6.6 3.4 15.5 5.7 17 1 .6 10.1-5.2 10.1-6.4 0-.4-.8-2.3-1.7-4.2-4.8-9.2 1-24.1 9.7-25.1 2.1-.3 2.5.1 2.3 2.2-.1 1.4-1 9.5-1.9 18-.9 8.5-1.7 17.1-1.8 19l-.1 3.5 6.8.3c5.6.2 7.8-.2 12.5-2.3 6.7-3.1 9.4-5.4 12.7-11 7-12 5.1-28-4.4-37.6-8.1-8.1-20.2-10.9-30.2-7zm22.5 19.1c4.1 4.6 5.1 7.6 4.1 12.7-.9 4.8-7.2 11.3-10.9 11.3-1.4 0-2.6-.3-2.6-.8.1-4.4 2.1-24.3 2.6-25.6 1-2.6 2.9-1.9 6.8 2.4zm-561-10.6c-3.1 3.1-3.4 4-3.4 9.1s.3 6 3.4 9.1c3.1 3.1 3.9 3.4 9.3 3.4 5.2 0 6.3-.3 8.6-2.8 5.6-5.9 5.5-14.7-.4-19.6-2.5-2.1-4.1-2.6-8.6-2.6-4.9 0-5.9.4-8.9 3.4zm513.2 53.8c-.2.7-1.1 3.7-2 6.7-.9 3-1.3 5.7-.9 6.1.5.4 2.8 1.2 5.3 1.9s6.3 1.9 8.5 2.6c2.2.7 6 1.8 8.5 2.5s6.2 1.9 8.3 2.6c2 .8 4.6 1.4 5.7 1.4 1.1 0 2.8.4 3.8.9.9.5 4.2 1.6 7.2 2.4 3 .9 9.3 2.7 14 4.1 10.1 3.1 14 3.3 14 .9 0-1 .7-3.6 1.6-6 .9-2.3 1.4-4.8 1.1-5.5-.2-.7-2.6-1.9-5.3-2.6-2.7-.8-6.7-1.9-8.9-2.6-2.2-.8-6-1.9-8.5-2.6-2.5-.7-6.3-1.8-8.5-2.5s-6-1.8-8.5-2.5c-7.7-2.1-13.2-3.8-21.6-6.4-8.9-2.9-13.3-3.3-13.8-1.4zm-516.6 12c-3 1.1-5.7 2.2-5.8 2.4-.2.1.1 1.8.7 3.6 1.2 3.6 7.2 10 10.6 11.3 1.8.7 1.7.9-1.3 2.2-3.1 1.3-3.3 1.6-2.7 4.6 1.1 4.7 3.6 10.7 4.5 10.7.5 0 2.1-.5 3.7-1.1 1.5-.6 4.2-1.5 5.8-1.9 7.4-2 40.8-13.9 41.8-14.9.8-.8.4-3-1.2-8.1-1.9-5.7-2.7-7-4-6.5-.9.4-2.9 1.1-4.6 1.7-1.6.5-3.9 1.3-5 1.8-7.4 3-17.9 6-21.2 6-5.6 0-10-3.1-12.6-9-1.2-2.8-2.4-5-2.7-4.9-.3.1-3 1-6 2.1zm517 17.5c-6.9 2.2-14 7.8-17.5 13.8-2.9 5.1-5.5 13.8-5.5 18.9 0 6.4 3.6 15 8.2 19.6 8.8 8.8 23.4 11.2 33.7 5.5 5.9-3.2 11.5-9.1 13.8-14.5.9-1.9 2-4.4 2.6-5.4 2-3.9 2.1-14.3.2-19.3-4.4-11.7-15.3-19.4-27.4-19.2-3.6 0-7.3.3-8.1.6zm11.8 15.9c8.7 3.6 12.5 10.8 10.2 19.2-4.4 16.6-31 11.6-31-5.8 0-5.9 2.8-10.2 8.5-13.3 3.8-2.1 7.6-2.1 12.3-.1zm-489.3.7c-1.1.6-3.9 2.3-6.3 3.7-5.5 3.3-9.5 9-11.7 16.7-1.6 5.9-1.7 6.7-.1 12.8 3.5 13.8 11.9 22.6 25.4 26.6 3.8 1.1 5.3 1 11-.5 14.8-4 22.6-13.7 22.5-28.3-.1-4.1-.6-8.7-1.3-10.2-3.8-7.9-4.9-9.5-9-13.8-6.2-6.3-11.3-8.3-20.8-8.2-4.2 0-8.6.5-9.7 1.2zm16.7 14.1c11.6 4.9 14 18 4.7 26-7.6 6.4-17.7 5.6-23.5-1.9-1.9-2.5-2.4-4.4-2.4-8.7 0-5.1.3-5.9 3.8-9.4 2.1-2.2 5.8-4.7 8.2-5.6 5.7-2.1 5.1-2.1 9.2-.4zm406 8.5c-2.3 2.7-4.2 5.6-4.1 6.3 0 .7 3.4 4.2 7.5 7.8 11.7 10.2 11.1 9.4 8.8 9.8-6.9 1.2-16 8.4-19.5 15.6-2.6 5.5-2.6 17.7 0 23.2 2.2 4.5 9.2 11.8 13.6 14.2 10.2 5.5 17.7 5.5 28.1-.1 6.7-3.5 13.4-14.3 13.4-21.5 0-2.4 0-2.4 2.7-.7l2.7 1.8 4.3-4.9c2.4-2.6 4.3-5.4 4.3-6.1 0-.6-1.3-2.2-2.9-3.5-2.7-2.1-10.2-8.9-29.6-26.3-14.8-13.3-23.3-20.5-24.3-20.5-.5 0-2.8 2.2-5 4.9zm28.3 36.7c6.4 4.1 8 7 8 14.1 0 5.5-.3 6.5-3 9.3-6.2 6.5-12.7 7-20.5 1.8-8.2-5.6-9.7-17.4-3-23.9 4.7-4.5 12.8-5.1 18.5-1.3zm-403.2-7.3c-3.9 3.4-12 10.5-18 15.7-5.9 5.2-11.8 10.3-13 11.4-1.3 1.1-2.3 2.4-2.3 3 0 .6 2.3 3.5 5 6.4l5 5.3 11.7-10.3c11.8-10.5 17.1-15.1 25.6-22.3 2.6-2.2 4.7-4.4 4.7-4.8 0-1.3-9.2-10.7-10.4-10.7-.6 0-4.3 2.8-8.3 6.3zm18.3 19.9c-3 4-7.3 9.5-9.5 12.3-8 10-10.1 14.3-10.1 21.6 0 3.9.6 7.8 1.5 9.7 3.8 7.4 14.2 14.2 22 14.2 4.9 0 5.3.4 2.9 3.2-2 2.2-1.3 3.3 5.5 8.2l4.8 3.4 7.4-9.6c4.1-5.2 10.8-13.8 14.9-19.1 12.4-15.7 12.4-15.8 10.3-17.5-5-4.2-9.6-7.6-10.3-7.6-.3 0-5.1 5.7-10.6 12.6-9.5 12.1-14.4 16.4-18.9 16.4-2.3 0-8.7-3.5-11-6-1.4-1.6-2-3.5-1.9-6.9 0-4.4.7-5.6 10.8-18.6l10.8-14-3-2.5c-5.2-4.3-8.7-7-9.4-7-.3 0-3.1 3.3-6.2 7.2zm317.9 16.5c-10.8 4.3-20.6 13.8-22 21.5l-.7 3.6 5.7 1.2c5.9 1.2 7.4.7 7.5-2.6 0-.6 1.9-3 4.2-5.3 5.6-5.4 12-7.5 18-5.7 2.4.6 4.4 1.9 4.6 2.7.2.9-5.8 5.5-16.8 12.8-9.3 6.2-17 11.8-17 12.5 0 2.3 5.1 8.6 9.3 11.5 19.8 13.6 48.4-3.2 46.5-27.3-.9-10.5-6.9-19.5-16-24-6.2-3.1-16.8-3.5-23.3-.9zM571 629c1.1 2.6 1 3.7-.6 7.2-4 8.9-15.7 12.9-22 7.5l-2.7-2.4 2.9-2.1c8.8-6.4 19-13.1 20-13.1.6-.1 1.7 1.3 2.4 2.9zm-410.4-23.4c-5.9 6-1.1 16.3 7.6 16.4 2.8 0 4.4-.7 6.3-2.7 2.8-3.1 3.2-6.1 1.1-10.2-3.3-6.3-10.5-8-15-3.5zM284 619.9c0 1.1-.4 2.2-1 2.6-.5.3-1.4 2-1.9 3.8-.5 1.8-2.6 7-4.6 11.7-4.3 10.1-5.5 12.8-6.6 15.5-.4 1.1-1.9 4.6-3.3 7.8s-2.6 6.3-2.6 7c0 .7 3.2 2.4 7.1 3.9l7 2.6 1.4-3.1c.7-1.8 2.5-5.8 3.9-9s2.6-6 2.6-6.3c0-1.5 5.5-12.2 7.3-14.1 3.9-4.3 12.8-4.2 18.2.1 4.6 3.7 4 10-2.4 25.1-2.8 6.6-5.5 12.8-6.1 13.7-1.6 2.8-1.2 3.6 2.8 5.3 11 4.8 10 4.6 11.7 2.2.8-1.2 1.5-2.7 1.5-3.4 0-.7.4-2.1 1-3.1.5-.9 1.5-3.3 2.3-5.2.8-1.9 2.2-5.1 3-7 4.7-10.6 5.7-14.4 5.7-20.9 0-5.8-.4-7.4-3-11.3-1.9-2.8-4.9-5.5-8.2-7.4-4.7-2.6-6.3-2.9-13.9-2.9-8.5 0-8.6 0-7.8-2.2.9-2.5.1-3.4-5.5-5.7-5.4-2.2-8.6-2.1-8.6.3zm218.3 6c-3.8 1.5-6.3 3.2-6.3 4.1 0 1.3 3.7 11.2 7 18.5 6 13.4 4.5 20.6-5.2 25.6-2.1 1.1-3.8 2-3.8 2.2 0 .6 3.7 9.5 4.6 11.1 1.1 1.8 1.3 1.7 5.7-.8 2.9-1.7 5.6-4.4 7.3-7.4l2.8-4.7 1.3 3.4c.8 1.9 1.9 3.1 2.6 2.8.7-.3 3.7-1.5 6.7-2.8 3-1.2 5.6-2.3 5.8-2.4.2-.2-2.4-7.1-5.6-14.5-.6-1.4-3-7.2-5.2-13-2.3-5.8-4.6-11.4-5-12.5-.5-1.1-1.8-4.2-2.8-7-1.1-2.7-2.3-5-2.8-5.1-.5-.1-3.7 1-7.1 2.5zm-147.1 18.8c-7.1 3.4-11.6 11.8-13.7 24.8-.3 2.2-1.3 8.3-2.1 13.5-5.3 32.2-5.1 29.8-2.3 30.4 8.8 1.9 13.4 2.6 16.5 2.6 1.9 0 4.3.4 5.2.9 1 .5 5.4 1.2 9.8 1.6l8 .7 1.1-5.8c.6-3.3 1-6 .8-6.2-.3-.4-9.2-2-17.4-3.1-3.5-.5-6.7-1.3-7.1-1.8-.9-.9.4-10.1 4.9-35.6 2-11.8 13.4-14 22-4.2 1.9 2.3 3.6 3.3 4.4 2.8 2.5-1.5 8.7-7.7 8.7-8.6 0-2.3-9.7-10.3-14.5-12-6.5-2.3-19.7-2.3-24.3 0zm74.6 20.3c-3 3.3-3.8 4.8-3.8 7.9 0 4.5 2.3 9.5 5.3 11.6 3.3 2.3 12.8 2 16-.6 6-4.6 5.8-15.2-.4-20.3-2.4-2.1-4.1-2.6-8.1-2.6-4.7 0-5.4.4-9 4z"/>
</svg>
